<?xml version="1.0" encoding="UTF-8"?><svg xmlns="http://www.w3.org/2000/svg" viewBox="0 0 250 250"><g id="a"/><g id="b"><path d="M86.14,65c5.71,0,10.92,.5,15.63,1.51,4.71,1.01,8.74,2.66,12.1,4.96,3.36,2.3,5.97,5.35,7.82,9.16,1.85,3.81,2.77,8.52,2.77,14.12,0,6.05-1.37,11.09-4.12,15.13-2.75,4.03-6.81,7.34-12.18,9.92,7.39,2.13,12.91,5.86,16.55,11.18,3.64,5.32,5.46,11.74,5.46,19.24,0,6.05-1.18,11.29-3.53,15.72-2.35,4.43-5.52,8.04-9.49,10.84-3.98,2.8-8.52,4.87-13.61,6.22-5.13,1.35-10.41,2.02-15.71,2.01H29.67V65h56.47Zm-3.36,48.57c4.71,0,8.57-1.12,11.6-3.36,3.03-2.24,4.54-5.88,4.54-10.92,0-2.8-.5-5.1-1.51-6.89-1.01-1.79-2.35-3.19-4.03-4.2-1.68-1.01-3.61-1.71-5.8-2.1-2.25-.4-4.52-.59-6.81-.59h-24.71v28.07h26.72Zm1.51,50.92c2.58,0,5.04-.25,7.39-.76,2.35-.5,4.42-1.35,6.22-2.52,1.79-1.17,3.22-2.77,4.29-4.79,1.06-2.02,1.6-4.59,1.6-7.73,0-6.16-1.74-10.56-5.21-13.19-3.47-2.63-8.07-3.95-13.78-3.95h-28.74v32.94h28.23Zm79.09-2.52c3.59,3.48,8.74,5.21,15.46,5.21,4.82,0,8.96-1.2,12.44-3.61,3.47-2.41,5.6-4.96,6.39-7.65h21.01c-3.36,10.42-8.52,17.87-15.46,22.35-6.95,4.48-15.35,6.72-25.21,6.72-6.83,0-13-1.09-18.49-3.28-5.49-2.18-10.14-5.29-13.95-9.33-3.81-4.03-6.75-8.85-8.82-14.45-2.07-5.6-3.11-11.76-3.11-18.49s1.06-12.55,3.19-18.15c2.13-5.6,5.15-10.45,9.08-14.54,3.92-4.09,8.6-7.31,14.03-9.66,5.43-2.35,11.46-3.53,18.07-3.53,7.4,0,13.84,1.43,19.33,4.29,5.49,2.86,10,6.7,13.53,11.51,3.53,4.82,6.08,10.31,7.65,16.47,1.57,6.16,2.13,12.61,1.68,19.33h-62.69c.33,7.73,2.29,13.33,5.88,16.81h0Zm26.97-45.71c-2.86-3.14-7.2-4.71-13.02-4.71-3.81,0-6.97,.65-9.5,1.93-2.52,1.29-4.54,2.88-6.05,4.79-1.51,1.91-2.58,3.92-3.19,6.05-.62,2.13-.98,4.03-1.09,5.71h38.82c-1.12-6.05-3.11-10.64-5.97-13.78Zm-36.93-45.17h48.51v13.45h-48.51v-13.45Z"/></g></svg>