<?xml version="1.0" encoding="UTF-8"?><svg xmlns="http://www.w3.org/2000/svg" viewBox="0 0 250 250"><g id="a"/><g id="b"><path d="M149,125c0,13.25-10.75,24-24,24s-24-10.75-24-24,10.75-24,24-24c13.25,.02,23.98,10.75,24,24Zm51-33v66c-.03,23.19-18.81,41.97-42,42H92c-23.19-.03-41.97-18.81-42-42V92c.03-23.19,18.81-41.97,42-42h66c23.19,.03,41.97,18.81,42,42Zm-39,33c0-19.88-16.12-36-36-36s-36,16.12-36,36,16.12,36,36,36c19.87-.02,35.98-16.13,36-36Zm12-39c0-4.97-4.03-9-9-9s-9,4.03-9,9,4.03,9,9,9,9-4.03,9-9Z"/></g></svg>