<?xml version="1.0" encoding="UTF-8"?><svg xmlns="http://www.w3.org/2000/svg" viewBox="0 0 250 250"><defs><style>.d{fill:#333;}</style></defs><g id="a"/><g id="b"><g><path class="d" d="M149.19,106.04h-28.81V49.65h28.81c15.55,0,28.19,12.65,28.19,28.19s-12.65,28.2-28.19,28.2Zm-19.57-9.24h19.57c10.45,0,18.96-8.51,18.96-18.96s-8.51-18.96-18.96-18.96h-19.57v37.91Zm0,9.24h-28.8c-15.55,0-28.19-12.65-28.19-28.19s12.65-28.2,28.19-28.2h28.81v56.39h0Zm-28.8-47.16c-10.45,0-18.96,8.51-18.96,18.96s8.5,18.96,18.96,18.96h19.57V58.89h-19.57Zm28.8,94.31h-28.8c-15.55,0-28.19-12.65-28.19-28.19s12.65-28.19,28.19-28.19h28.81v56.39h0Zm-28.8-47.15c-10.45,0-18.96,8.51-18.96,18.96s8.51,18.96,18.96,18.96h19.57v-37.91h-19.57Zm.15,94.31c-15.63,0-28.35-12.65-28.35-28.19s12.65-28.19,28.19-28.19h28.81v27.89c0,15.72-12.85,28.5-28.65,28.5Zm-.15-47.16c-10.46,.01-18.94,8.49-18.96,18.96,0,10.45,8.57,18.96,19.11,18.96s19.42-8.64,19.42-19.26v-18.65h-19.58Zm48.37,0h-.62c-15.55,0-28.19-12.65-28.19-28.19s12.65-28.19,28.19-28.19h.62c15.55,0,28.19,12.65,28.19,28.19s-12.65,28.19-28.19,28.19Zm-.61-47.15c-10.45,0-18.96,8.51-18.96,18.96s8.51,18.96,18.96,18.96h.62c10.45,0,18.96-8.51,18.96-18.96s-8.51-18.96-18.96-18.96h-.62Z"/><path class="d" d="M100.97,203.84c-17.56,0-31.84-14.21-31.84-31.68,0-9.36,4.07-17.78,10.54-23.58-6.46-5.81-10.54-14.22-10.54-23.57s4.07-17.77,10.54-23.57c-6.46-5.81-10.54-14.22-10.54-23.57,0-17.47,14.21-31.69,31.68-31.69h48.37c17.47,0,31.68,14.21,31.68,31.69,0,9.35-4.07,17.77-10.54,23.58,6.47,5.81,10.54,14.22,10.54,23.58,0,17.47-14.21,31.68-31.68,31.68h-.62c-5.61,0-10.88-1.47-15.46-4.03v19.2c0,17.64-14.43,31.99-32.15,31.99Zm-15.43-51.09c-5.74,4.53-9.43,11.54-9.43,19.4,0,13.62,11.15,24.7,24.86,24.7s25.16-11.22,25.16-25.01v-15.16h-2.24v15.16c0,12.55-10.28,22.76-22.91,22.76s-22.61-10.07-22.61-22.45c0-7.52,3.74-14.19,9.43-18.26-.77-.35-1.52-.73-2.26-1.13Zm15.28,3.93c-8.52,.01-15.46,6.95-15.47,15.47,0,8.52,7.01,15.46,15.62,15.46s15.93-7.08,15.93-15.77v-15.16h-16.08Zm32.3-12.43c4.23,3.41,9.61,5.45,15.46,5.45h.62c13.62,0,24.7-11.08,24.7-24.7,0-7.86-3.69-14.87-9.42-19.4-.73,.4-1.48,.78-2.24,1.13,5.7,4.08,9.42,10.75,9.42,18.27,0,12.38-10.07,22.45-22.45,22.45h-.62c-5.99,0-11.43-2.36-15.46-6.19v2.99Zm-9.23,5.45h2.24v-2.25h-25.32c-2.56,0-5.04,.39-7.37,1.12,2.33,.73,4.81,1.12,7.37,1.12h23.07Zm-38.35-44.1c-5.74,4.53-9.42,11.54-9.42,19.4s3.69,14.87,9.43,19.4c.73-.4,1.48-.78,2.25-1.13-5.7-4.07-9.42-10.75-9.42-18.27s3.72-14.19,9.42-18.27c-.76-.35-1.51-.72-2.25-1.13Zm47.58,19.4c0,8.53,6.94,15.46,15.46,15.46h.62c8.53,0,15.46-6.94,15.46-15.46s-6.94-15.46-15.46-15.46h-.62c-8.53,0-15.46,6.94-15.46,15.46Zm-32.3-15.46c-8.53,0-15.46,6.94-15.46,15.46s6.94,15.46,15.46,15.46h16.08v-14.8c0-.22,0-.44,0-.66s0-.44,0-.66v-14.8h-16.08Zm23.06,16.05c.08,3.47,.88,6.76,2.25,9.73v-20.63c-1.37,2.97-2.17,6.27-2.25,9.73v1.17Zm24.7-23.03h.61c2.57,0,5.05-.39,7.38-1.13-2.33-.73-4.81-1.13-7.38-1.13h-.62c-3.68,0-7.17,.81-10.3,2.25h10.31Zm-24.7,0h2.25v-2.25h-2.26v2.25Zm-23.06,0h16.07v-2.25h-16.07c-2.57,0-5.05,.39-7.38,1.13,2.33,.73,4.81,1.13,7.38,1.13Zm0-49.41c-13.62,0-24.7,11.08-24.7,24.71,0,7.86,3.69,14.87,9.42,19.4,.73-.4,1.48-.78,2.25-1.13-5.7-4.08-9.42-10.75-9.42-18.28,0-12.38,10.07-22.45,22.45-22.45h16.07v-2.25h-16.07Zm61.41,42.98c.76,.35,1.51,.72,2.24,1.13,5.74-4.53,9.42-11.54,9.42-19.4,0-13.62-11.08-24.7-24.7-24.7h-16.07v2.26h16.07c12.38,0,22.45,10.07,22.45,22.45,0,7.52-3.72,14.19-9.42,18.27Zm-13.65-2.81h.62c8.53,0,15.46-6.94,15.46-15.46s-6.94-15.46-15.46-15.46h-16.07v30.93h15.46Zm-24.69,0h2.25V53.14h-2.25v40.17Zm-23.06,0h16.07v-30.93h-16.07c-8.53,0-15.46,6.94-15.46,15.46s6.94,15.47,15.46,15.47Z"/></g></g><g id="c"/></svg>