<?xml version="1.0" encoding="UTF-8"?><svg xmlns="http://www.w3.org/2000/svg" viewBox="0 0 250 250"><g id="a"/><g id="b"><path d="M50,125c0-13.6,3.35-26.15,10.05-37.65,6.7-11.5,15.8-20.6,27.3-27.3,11.5-6.7,24.05-10.05,37.65-10.05s26.15,3.35,37.65,10.05c11.5,6.7,20.6,15.8,27.3,27.3,6.7,11.5,10.05,24.05,10.05,37.65s-3.35,26.15-10.05,37.65c-6.7,11.5-15.8,20.6-27.3,27.3-11.5,6.7-24.05,10.05-37.65,10.05s-26.15-3.35-37.65-10.05c-11.5-6.7-20.6-15.8-27.3-27.3-6.7-11.5-10.05-24.05-10.05-37.65Zm12.45,0c0,15.6,5.25,29.35,15.75,41.25,4.8-9.4,12.4-18.35,22.8-26.85,10.4-8.5,20.55-13.85,30.45-16.05-1.5-3.5-2.95-6.65-4.35-9.45-17.2,5.5-35.8,8.25-55.8,8.25-3.9,0-6.8-.05-8.7-.15,0,.4-.02,.9-.07,1.5-.05,.6-.08,1.1-.08,1.5Zm1.95-15.45c2.2,.2,5.45,.3,9.75,.3,16.7,0,32.55-2.25,47.55-6.75-7.6-13.5-15.95-24.75-25.05-33.75-7.9,4-14.67,9.55-20.32,16.65-5.65,7.1-9.62,14.95-11.92,23.55Zm22.35,64.8c11.3,8.8,24.05,13.2,38.25,13.2,7.4,0,14.75-1.4,22.05-4.2-2-17.1-5.9-33.65-11.7-49.65-9.2,2-18.47,7.05-27.83,15.15-9.35,8.1-16.27,16.6-20.77,25.5Zm22.95-109.8c8.8,9.1,16.95,20.45,24.45,34.05,13.6-5.7,23.85-12.95,30.75-21.75-11.6-9.6-24.9-14.4-39.9-14.4-5.1,0-10.2,.7-15.3,2.1Zm29.85,44.7c1.5,3.2,3.2,7.25,5.1,12.15,7.4-.7,15.45-1.05,24.15-1.05,6.2,0,12.35,.15,18.45,.45-.8-13.6-5.7-25.7-14.7-36.3-6.5,9.7-17.5,17.95-33,24.75Zm8.85,22.65c5.1,14.8,8.55,30,10.35,45.6,7.9-5.1,14.35-11.65,19.35-19.65,5-8,8-16.65,9-25.95-7.3-.5-13.95-.75-19.95-.75-5.5,0-11.75,.25-18.75,.75Z"/></g></svg>