<?xml version="1.0" encoding="UTF-8"?><svg xmlns="http://www.w3.org/2000/svg" viewBox="0 0 250 250"><defs><style>.d{fill:#333;}</style></defs><g id="a"/><g id="b"/><g id="c"><path class="d" d="M190.4,209.54l-11.61-9.21-27.67-21.94-33.44-26.52-28.98-22.99c-4.68-3.71-9.31-7.53-14.06-11.15-.06-.05-.13-.1-.19-.15v14.85l11.61-9.21,27.67-21.94,33.44-26.52,28.98-22.99c4.68-3.71,9.47-7.32,14.06-11.15,.06-.05,.13-.1,.19-.15,1.97-1.56,3.08-5.04,3.08-7.42,0-2.58-1.14-5.65-3.08-7.42s-4.63-3.2-7.42-3.08l-2.79,.38c-1.78,.5-3.32,1.4-4.63,2.7l-11.61,9.21-27.67,21.94-33.44,26.52-28.98,22.99c-4.68,3.71-9.47,7.32-14.06,11.15-.06,.05-.13,.1-.19,.15-1.89,1.5-3.18,5.1-3.08,7.42,.12,2.59,.94,5.73,3.08,7.42l11.61,9.21,27.67,21.94,33.44,26.52,28.98,22.99c4.69,3.72,9.37,7.44,14.06,11.15,.06,.05,.13,.1,.19,.15,2.27,1.8,4.41,3.08,7.42,3.08,2.58,0,5.65-1.14,7.42-3.08s3.2-4.63,3.08-7.42c-.12-2.59-.94-5.73-3.08-7.42h0Z"/></g></svg>