<?xml version="1.0" encoding="UTF-8"?><svg xmlns="http://www.w3.org/2000/svg" viewBox="0 0 500 500"><defs><style>.c{fill:#333;}</style></defs><g id="a"/><g id="b"><path class="c" d="M92.36,369.25H14.83V38.3H92.36V369.25Zm-76.03-1.5H90.86V39.8H16.33V367.75Z"/><path class="c" d="M485.17,370.77h-77.53V38.81h77.53V370.77Zm-76.03-1.5h74.53V40.31h-74.53V369.27Z"/><polygon class="c" points="279.37 373.83 113.38 373.83 113.38 372.33 277.87 372.33 277.87 207.85 279.37 207.85 279.37 373.83"/><polygon class="c" points="118.21 203.77 116.71 203.77 116.71 37.79 282.69 37.79 282.69 39.29 118.21 39.29 118.21 203.77"/><path class="c" d="M199.57,235.95c-17.74,0-32.17-14.43-32.17-32.17s14.43-32.17,32.17-32.17,32.17,14.43,32.17,32.17-14.43,32.17-32.17,32.17Zm0-62.85c-16.91,0-30.67,13.76-30.67,30.67s13.76,30.67,30.67,30.67,30.67-13.76,30.67-30.67-13.76-30.67-30.67-30.67Z"/><path class="c" d="M379.72,372.82h-77.53V207.1h77.53v165.72Zm-76.03-1.5h74.53V208.6h-74.53v162.72Z"/><path class="c" d="M379.72,183.26h-77.53V105.73h77.53v77.53Zm-76.03-1.5h74.53V107.23h-74.53v74.53Z"/><g><path d="M51,416.16c-.91-.95-1.84-1.77-2.79-2.45s-1.97-1.22-3.06-1.63-2.24-.71-3.47-.92c-1.22-.2-2.56-.31-4.01-.31-5.12,0-8.84,.98-11.15,2.92-2.31,1.95-3.47,4.56-3.47,7.82,0,2.22,.5,3.97,1.5,5.24,1,1.27,2.58,2.28,4.76,3.03,2.18,.75,4.99,1.49,8.43,2.21,3.54,.73,6.6,1.56,9.18,2.52s4.58,2.24,5.98,3.88c1.4,1.63,2.11,3.88,2.11,6.73,0,2.04-.4,3.84-1.19,5.41-.79,1.56-1.94,2.87-3.43,3.91-1.5,1.04-3.3,1.83-5.41,2.35-2.11,.52-4.45,.78-7.04,.78s-4.99-.26-7.21-.78c-2.22-.52-4.31-1.33-6.26-2.41-1.95-1.09-3.79-2.47-5.51-4.15l1.43-1.77c1.09,1.18,2.28,2.21,3.57,3.09s2.67,1.62,4.15,2.21c1.47,.59,3.04,1.03,4.69,1.33s3.39,.44,5.2,.44c4.53,0,8.1-.85,10.71-2.55,2.61-1.7,3.91-4.2,3.91-7.51,0-2.31-.57-4.16-1.7-5.54s-2.86-2.52-5.17-3.4c-2.31-.88-5.26-1.69-8.84-2.41-3.49-.72-6.45-1.52-8.87-2.38-2.43-.86-4.26-2.06-5.51-3.6-1.25-1.54-1.87-3.63-1.87-6.26,0-2.86,.7-5.27,2.11-7.24,1.4-1.97,3.38-3.47,5.92-4.49,2.54-1.02,5.51-1.53,8.91-1.53,2.08,0,3.99,.2,5.71,.61,1.72,.41,3.32,1.02,4.79,1.84,1.47,.82,2.87,1.9,4.18,3.26l-1.29,1.77Z"/><path d="M96.97,411.2h-18.09v46.1h-2.38v-46.1h-18.09v-2.18h38.56v2.18Z"/><path d="M123.96,457.64c-3.81,0-7-.69-9.59-2.07-2.58-1.38-4.64-3.24-6.15-5.58-1.52-2.33-2.61-4.95-3.26-7.85-.66-2.9-.99-5.87-.99-8.91v-24.21h2.38v24.21c0,2.77,.28,5.49,.85,8.16,.57,2.68,1.51,5.07,2.82,7.17,1.31,2.11,3.1,3.77,5.37,5,2.27,1.22,5.1,1.84,8.5,1.84s6.31-.63,8.6-1.9c2.29-1.27,4.09-2.97,5.41-5.1,1.31-2.13,2.24-4.51,2.79-7.14,.54-2.63,.82-5.3,.82-8.02v-24.21h2.31v24.21c0,3.17-.34,6.23-1.02,9.18-.68,2.95-1.79,5.55-3.33,7.82-1.54,2.27-3.58,4.07-6.12,5.41-2.54,1.34-5.67,2.01-9.38,2.01Z"/><path d="M156.13,457.3v-48.28h15.78c5.08,0,9.29,1.08,12.65,3.23,3.35,2.15,5.88,5.06,7.58,8.7,1.7,3.65,2.55,7.7,2.55,12.14,0,4.9-.93,9.16-2.79,12.78-1.86,3.63-4.5,6.44-7.92,8.43-3.42,2-7.45,2.99-12.07,2.99h-15.78Zm36.18-24.21c0-4.22-.79-7.98-2.38-11.29-1.59-3.31-3.89-5.9-6.9-7.79-3.02-1.88-6.72-2.82-11.12-2.82h-13.4v43.93h13.4c4.44,0,8.18-.96,11.22-2.89,3.04-1.93,5.33-4.57,6.87-7.92,1.54-3.35,2.31-7.09,2.31-11.22Z"/><path d="M204.54,457.3v-48.28h2.38v48.28h-2.38Z"/><path d="M239.15,457.64c-3.36,0-6.42-.69-9.18-2.07-2.77-1.38-5.15-3.23-7.14-5.54-2-2.31-3.54-4.93-4.62-7.85s-1.63-5.93-1.63-9.01,.57-6.29,1.7-9.21c1.13-2.92,2.73-5.53,4.79-7.82,2.06-2.29,4.46-4.1,7.21-5.44,2.74-1.34,5.7-2.01,8.87-2.01,3.35,0,6.41,.7,9.18,2.11,2.76,1.41,5.13,3.29,7.11,5.64,1.97,2.36,3.5,4.99,4.59,7.89,1.09,2.9,1.63,5.85,1.63,8.84,0,3.26-.57,6.36-1.7,9.28-1.13,2.92-2.72,5.53-4.76,7.82-2.04,2.29-4.43,4.09-7.17,5.41-2.74,1.32-5.7,1.97-8.87,1.97Zm-20.2-24.48c0,2.9,.5,5.68,1.5,8.33,1,2.65,2.39,5.02,4.18,7.11,1.79,2.09,3.92,3.74,6.39,4.96,2.47,1.22,5.18,1.84,8.13,1.84s5.73-.63,8.23-1.9c2.49-1.27,4.62-2.97,6.39-5.1,1.77-2.13,3.13-4.51,4.08-7.14,.95-2.63,1.43-5.33,1.43-8.09,0-2.9-.5-5.68-1.5-8.33-1-2.65-2.4-5.02-4.22-7.11-1.81-2.08-3.96-3.74-6.43-4.96-2.47-1.22-5.13-1.84-7.99-1.84-3.04,0-5.79,.64-8.26,1.9-2.47,1.27-4.59,2.97-6.36,5.1-1.77,2.13-3.14,4.51-4.11,7.14-.98,2.63-1.46,5.33-1.46,8.09Z"/><path d="M288.93,457.3v-48.28h2.38v30.4l29.51-30.4h2.92l-20.33,21.15,21.28,27.13h-2.79l-20.13-25.64-10.47,10.68v14.96h-2.38Z"/><path d="M346.93,409.02h2.04l20.74,48.28h-2.52l-7.08-16.66h-24.33l-7.08,16.66h-2.58l20.81-48.28Zm12.32,29.58l-11.3-26.59-11.3,26.59h22.6Z"/><path d="M403.64,433.91c0,1.04-.25,1.98-.75,2.82-.5,.84-1.17,1.51-2.01,2.01-.84,.5-1.78,.75-2.82,.75-.95,0-1.85-.25-2.69-.75-.84-.5-1.52-1.17-2.04-2.01-.52-.84-.78-1.78-.78-2.82s.26-1.9,.78-2.72c.52-.82,1.2-1.48,2.04-2.01,.84-.52,1.73-.78,2.69-.78,1.04,0,1.98,.26,2.82,.78,.84,.52,1.51,1.19,2.01,2.01,.5,.82,.75,1.72,.75,2.72Z"/><path d="M433.9,457.3v-48.28h2.38v48.28h-2.38Z"/><path d="M449.34,457.3v-48.28h2.38v46.1h29.58v2.18h-31.96Z"/></g></g></svg>