<?xml version="1.0" encoding="UTF-8"?><svg xmlns="http://www.w3.org/2000/svg" viewBox="0 0 250 250"><defs><style>.d{fill:#fff;}.e{fill:#333;}</style></defs><g id="a"/><g id="b"><g><circle class="e" cx="125" cy="125" r="80"/><path class="d" d="M189.54,147.48c2.46-7.04,3.8-14.61,3.8-22.49s-1.34-15.44-3.8-22.48c-.06-.21-.13-.42-.22-.62-9.49-26.35-34.74-45.24-64.32-45.24s-54.83,18.89-64.32,45.24c-.09,.2-.16,.4-.22,.62-2.46,7.04-3.8,14.61-3.8,22.48s1.34,15.44,3.8,22.49c.06,.21,.13,.42,.22,.62,9.49,26.35,34.74,45.24,64.32,45.24s54.83-18.89,64.32-45.24c.09-.2,.16-.4,.22-.62h0Zm-64.54,36.06c-2.6,0-6.8-4.71-10.31-15.23-1.69-5.08-3.05-10.92-4.03-17.27h28.68c-.99,6.35-2.34,12.19-4.03,17.27-3.51,10.52-7.71,15.23-10.31,15.23h0Zm0-117.09c2.6,0,6.8,4.71,10.31,15.23,1.69,5.08,3.05,10.92,4.03,17.27h-28.68c.99-6.35,2.34-12.19,4.03-17.27,3.51-10.52,7.7-15.23,10.31-15.23h0Zm52.42,32.5h-28.19c-1.74-12.02-4.73-22.8-8.93-30.47,16.26,4.41,29.73,15.66,37.11,30.47h0Zm-67.73-30.47c-4.19,7.67-7.18,18.45-8.93,30.47h-28.19c7.39-14.8,20.86-26.06,37.11-30.47h0Zm-37.11,82.56h28.19c1.74,12.02,4.73,22.8,8.93,30.47-16.26-4.41-29.73-15.66-37.11-30.47h0Zm67.73,30.47c4.19-7.67,7.18-18.45,8.93-30.47h28.19c-7.39,14.8-20.86,26.05-37.11,30.47h0Zm0,0"/><rect class="e" x="65.11" y="106.04" width="119.78" height="37.92" rx="16.25" ry="16.25"/><g><path class="d" d="M94.57,125.64l-.89,1.88c-.82,1.69-1.57,3.06-2.25,4.11-.68,1.06-1.31,1.8-1.9,2.24-.58,.44-1.2,.66-1.86,.66s-1.25-.28-1.75-.85c-.97-1.14-1.79-3.3-2.44-6.48-.51-2.57-.77-4.78-.77-6.65,0-1.46,.17-2.62,.5-3.49s.85-1.51,1.56-1.92,1.63-.61,2.77-.61c.6,0,1.03,.1,1.3,.31,.27,.21,.45,.62,.55,1.25,.1,.62,.15,1.57,.15,2.83,0,2.3,.11,4.48,.34,6.52,.03,.11,.1,.67,.21,1.67h.1c.1-.21,.17-.37,.23-.5,.06-.12,.11-.25,.17-.37,.06-.12,.11-.24,.16-.34,.05-.1,.11-.25,.2-.45,.74-1.67,1.51-3.58,2.31-5.75,.93-2.49,1.57-4,1.92-4.54,.1-.12,.23-.26,.4-.42,.67-.49,1.62-.73,2.85-.73,.65,0,1.14,.12,1.46,.36,.32,.24,.54,.65,.66,1.22,.12,.57,.19,1.51,.22,2.81,0,1.04,.12,2.5,.36,4.36,.24,1.87,.51,3.53,.8,4.99,.1,.5,.31,1.45,.63,2.85h.1c.3-.92,.51-1.63,.62-2.15,.4-1.76,.6-4.3,.6-7.62v-.94c0-.99,.09-1.77,.27-2.36,.18-.59,.5-1.13,.96-1.61,.49-.49,1.05-.89,1.69-1.2,.64-.31,1.2-.47,1.69-.47,.57,0,.98,.23,1.22,.68s.36,1.18,.36,2.2c0,2.28-.47,5.12-1.42,8.52-.82,2.9-1.89,5.58-3.23,8.02-.43,.76-.85,1.39-1.25,1.87-.4,.49-.82,.83-1.25,1.03s-.92,.3-1.48,.3c-1.97,0-3.59-1.26-4.85-3.79-.37-.78-.71-1.66-1-2.65s-.54-2.13-.75-3.43c-.07-.22-.13-.68-.17-1.38h-.1Z"/><path class="d" d="M123.45,125.64l-.89,1.88c-.82,1.69-1.57,3.06-2.25,4.11-.68,1.06-1.31,1.8-1.9,2.24-.58,.44-1.2,.66-1.86,.66s-1.25-.28-1.75-.85c-.97-1.14-1.79-3.3-2.44-6.48-.51-2.57-.77-4.78-.77-6.65,0-1.46,.17-2.62,.5-3.49s.85-1.51,1.56-1.92,1.63-.61,2.77-.61c.6,0,1.03,.1,1.3,.31,.27,.21,.45,.62,.55,1.25,.1,.62,.15,1.57,.15,2.83,0,2.3,.11,4.48,.34,6.52,.03,.11,.1,.67,.21,1.67h.1c.1-.21,.17-.37,.23-.5,.06-.12,.11-.25,.17-.37,.06-.12,.11-.24,.16-.34,.05-.1,.11-.25,.2-.45,.74-1.67,1.51-3.58,2.31-5.75,.93-2.49,1.57-4,1.92-4.54,.1-.12,.23-.26,.4-.42,.67-.49,1.62-.73,2.85-.73,.65,0,1.14,.12,1.46,.36,.32,.24,.54,.65,.66,1.22,.12,.57,.19,1.51,.22,2.81,0,1.04,.12,2.5,.36,4.36,.24,1.87,.51,3.53,.8,4.99,.1,.5,.31,1.45,.63,2.85h.1c.3-.92,.51-1.63,.62-2.15,.4-1.76,.6-4.3,.6-7.62v-.94c0-.99,.09-1.77,.27-2.36,.18-.59,.5-1.13,.96-1.61,.49-.49,1.05-.89,1.69-1.2,.64-.31,1.2-.47,1.69-.47,.57,0,.98,.23,1.22,.68s.36,1.18,.36,2.2c0,2.28-.47,5.12-1.42,8.52-.82,2.9-1.89,5.58-3.23,8.02-.43,.76-.85,1.39-1.25,1.87-.4,.49-.82,.83-1.25,1.03s-.92,.3-1.48,.3c-1.97,0-3.59-1.26-4.85-3.79-.37-.78-.71-1.66-1-2.65s-.54-2.13-.75-3.43c-.07-.22-.13-.68-.17-1.38h-.1Z"/><path class="d" d="M152.32,125.64l-.89,1.88c-.82,1.69-1.57,3.06-2.25,4.11-.68,1.06-1.31,1.8-1.9,2.24-.58,.44-1.2,.66-1.86,.66s-1.25-.28-1.75-.85c-.97-1.14-1.79-3.3-2.44-6.48-.51-2.57-.77-4.78-.77-6.65,0-1.46,.17-2.62,.5-3.49s.85-1.51,1.56-1.92,1.63-.61,2.77-.61c.6,0,1.03,.1,1.3,.31,.27,.21,.45,.62,.55,1.25,.1,.62,.15,1.57,.15,2.83,0,2.3,.11,4.48,.34,6.52,.03,.11,.1,.67,.21,1.67h.1c.1-.21,.17-.37,.23-.5,.06-.12,.11-.25,.17-.37,.06-.12,.11-.24,.16-.34,.05-.1,.11-.25,.2-.45,.74-1.67,1.51-3.58,2.31-5.75,.93-2.49,1.57-4,1.92-4.54,.1-.12,.23-.26,.4-.42,.67-.49,1.62-.73,2.85-.73,.65,0,1.14,.12,1.46,.36,.32,.24,.54,.65,.66,1.22,.12,.57,.19,1.51,.22,2.81,0,1.04,.12,2.5,.36,4.36,.24,1.87,.51,3.53,.8,4.99,.1,.5,.31,1.45,.63,2.85h.1c.3-.92,.51-1.63,.62-2.15,.4-1.76,.6-4.3,.6-7.62v-.94c0-.99,.09-1.77,.27-2.36,.18-.59,.5-1.13,.96-1.61,.49-.49,1.05-.89,1.69-1.2,.64-.31,1.2-.47,1.69-.47,.57,0,.98,.23,1.22,.68s.36,1.18,.36,2.2c0,2.28-.47,5.12-1.42,8.52-.82,2.9-1.89,5.58-3.23,8.02-.43,.76-.85,1.39-1.25,1.87-.4,.49-.82,.83-1.25,1.03s-.92,.3-1.48,.3c-1.97,0-3.59-1.26-4.85-3.79-.37-.78-.71-1.66-1-2.65s-.54-2.13-.75-3.43c-.07-.22-.13-.68-.17-1.38h-.1Z"/></g></g></g><g id="c"/></svg>