<?xml version="1.0" encoding="UTF-8"?><svg xmlns="http://www.w3.org/2000/svg" viewBox="0 0 250 250"><g id="a"/><g id="b"><path d="M110.33,184.85c-32.54-.6-43.65-1.14-50.49-2.55-4.62-.94-8.64-3.01-11.58-6.02-2.28-2.28-4.09-5.76-5.49-10.58-1.2-4.02-1.67-7.36-2.34-15.53-1.02-18.44-1.27-33.51,0-50.35,1.05-9.3,1.55-20.34,8.5-26.78,3.28-3.01,7.1-4.95,11.38-5.76,6.7-1.27,35.22-2.28,64.75-2.28s58.05,1,64.75,2.28c5.35,1,10.38,4.02,13.32,7.9,6.34,9.97,6.45,22.37,7.09,32.07,.27,4.62,.27,30.87,0,35.49-1,15.33-1.81,20.75-4.08,26.38-1.41,3.55-2.61,5.42-4.69,7.5-3.26,3.2-7.42,5.32-11.92,6.09-28.16,2.12-52.07,2.58-79.21,2.14h0Zm43.12-61.6h0c-15.67-8.37-30.67-16.14-46-24.17v48.08l46-23.9Z"/></g></svg>